<svg width="16" height="16" viewBox="0 0 16 16" fill="none" xmlns="http://www.w3.org/2000/svg">
<path d="M11.5842 0C14.0189 0 16 1.87189 16 4.17264V10.9483C15.9998 13.2489 14.0188 15.1209 11.5842 15.1209H4.41487C1.98063 15.1207 0.000248695 13.2489 0 10.9483V4.17264C5.71337e-05 1.87201 1.98051 0.000205623 4.41487 0H11.5842ZM4.41585 1.34204C2.76409 1.34204 1.42029 2.61167 1.42018 4.17264V10.9483C1.42038 12.5093 2.76415 13.779 4.41585 13.7789H11.5851C13.1851 13.7787 14.4963 12.5873 14.5769 11.0938L14.5808 10.9483V4.17264C14.5807 2.61181 13.2368 1.34226 11.5851 1.34204H4.41585ZM8.00049 3.77999C10.2061 3.77999 12.0002 5.47552 12.0002 7.55998C12.0002 9.64433 10.2061 11.34 8.00049 11.34C5.79498 11.3399 4.00075 9.64427 4.00073 7.55998C4.00073 5.47559 5.79497 3.78009 8.00049 3.77999ZM7.99951 5.08101C6.55339 5.08106 5.37696 6.19328 5.37696 7.55998C5.377 8.92655 6.55351 10.0379 7.99951 10.038C9.44556 10.038 10.622 8.92659 10.6221 7.55998C10.6221 6.19325 9.44567 5.08101 7.99951 5.08101ZM12.0002 2.8345C12.2638 2.83457 12.522 2.93578 12.7074 3.1119C12.8937 3.28718 13.0004 3.53089 13.0004 3.77999C13.0004 4.02834 12.8938 4.27289 12.7074 4.44906C12.5211 4.62418 12.2637 4.72541 12.0002 4.72547C11.7375 4.72547 11.4786 4.62437 11.2931 4.44906C11.1067 4.27289 11.0001 4.02843 11.0001 3.77999C11.0001 3.53099 11.1069 3.28717 11.2931 3.1119C11.4787 2.93573 11.7375 2.8345 12.0002 2.8345Z" fill="white"/>
</svg>
