<svg width="117" height="15" viewBox="0 0 117 15" fill="none" xmlns="http://www.w3.org/2000/svg">
<path d="M18.1882 13.8799H16.282C16.1628 13.8799 16.004 13.7999 16.004 13.6799C16.004 13.6399 16.004 13.6399 16.004 13.5999V5.27998C16.004 4.51998 15.7657 3.75998 15.3289 3.15999C14.8126 2.51999 14.0184 2.19999 13.2241 2.23999C12.827 2.23999 12.4696 2.31999 12.1122 2.51999C11.7945 2.67999 11.4768 2.91999 11.2385 3.19999C11.0003 3.47998 10.8017 3.79998 10.6826 4.15998C10.5634 4.51998 10.484 4.91998 10.484 5.27998V13.5999C10.484 13.7999 10.4046 13.9199 10.206 13.9199H8.33955C8.14099 13.9199 8.02186 13.8399 8.02186 13.6399V5.27998C8.02186 4.51998 7.82329 3.75998 7.38646 3.15999C6.94963 2.55999 6.27452 2.23999 5.32143 2.23999C4.92431 2.23999 4.48747 2.31999 4.13006 2.47999C3.73294 2.59999 3.41525 2.83999 3.17697 3.11999C2.9387 3.39998 2.77985 3.75998 2.66071 4.07998C2.54158 4.43998 2.46215 4.83998 2.46215 5.23998V13.5599C2.46215 13.7599 2.38273 13.8799 2.18417 13.8799H0.317697C0.119136 13.8799 0 13.7999 0 13.5999V5.27998C0 4.55998 0.119136 3.87998 0.357409 3.19999C0.595682 2.59999 0.913379 2.03999 1.38993 1.55999C1.82676 1.07999 2.42244 0.679997 3.01812 0.439998C3.73294 0.159999 4.48747 0.0399998 5.28172 0.0399998C6.03625 0.0399998 6.79078 0.199999 7.46588 0.519998C8.06157 0.839996 8.61754 1.23999 9.05437 1.75999C9.17351 1.91999 9.29264 1.91999 9.41178 1.79999C9.84861 1.27999 10.4046 0.879996 11.04 0.559997C11.7548 0.199999 12.5888 0.0399998 13.383 0.0399998C14.1375 0.0399998 14.9318 0.159999 15.6466 0.439998C16.2423 0.679997 16.7982 1.04 17.2351 1.51999C17.6719 1.99999 17.9896 2.55999 18.1882 3.15999C18.3867 3.83998 18.5059 4.55998 18.5059 5.23998V13.5199C18.4662 13.7999 18.3867 13.8799 18.1882 13.8799ZM39.2356 8.79996C39.2356 10.48 38.7591 11.7599 37.7663 12.6799C36.7735 13.5999 35.463 14.0399 33.795 14.0399C32.0874 14.0399 30.7372 13.5999 29.7841 12.6799C28.831 11.7599 28.3545 10.48 28.3545 8.79996V5.23998C28.3545 3.63998 28.831 2.35999 29.7444 1.43999C30.6578 0.519998 32.008 0.0399998 33.7553 0.0399998C35.5027 0.0399998 36.8529 0.479998 37.806 1.39999C38.7591 2.31999 39.2356 3.59998 39.2356 5.23998V8.79996ZM36.7735 5.23998C36.8132 4.43998 36.5352 3.63998 36.0586 3.03999C35.5821 2.47999 34.8276 2.19999 33.8348 2.15999C33.0405 2.11999 32.2463 2.43999 31.6903 2.99999C31.1343 3.59998 30.8563 4.39998 30.8961 5.19998V8.79996C30.8563 9.59995 31.0946 10.36 31.5712 10.9999C32.008 11.5599 32.7625 11.8799 33.8348 11.8799C34.907 11.8799 35.6615 11.5999 36.0983 11.0399C36.5352 10.44 36.7735 9.63996 36.7735 8.83996V5.23998ZM51.189 0.279999C51.3875 0.279999 51.5067 0.359998 51.5067 0.559997V2.03999C51.5067 2.11999 51.5464 2.19999 51.6258 2.23999C51.7052 2.27999 51.7846 2.23999 51.8641 2.11999C52.2612 1.55999 52.7377 1.11999 53.3334 0.719997C53.9688 0.279999 54.7233 0.0799996 55.4779 0.0799996C55.597 0.0799996 55.7559 0.0799996 55.9544 0.0799996C56.0736 0.0799996 56.1927 0.119999 56.3118 0.159999C56.4707 0.199999 56.5898 0.239999 56.5898 0.319999C56.6295 0.399998 56.6295 0.519998 56.5898 0.599997L56.2324 2.43999C56.1927 2.59999 56.153 2.71999 56.0736 2.71999C55.9941 2.75999 55.9147 2.75999 55.8353 2.71999C55.5573 2.63999 55.2396 2.63999 54.9616 2.63999C53.81 2.63999 53.0157 2.95999 52.5392 3.63998C52.0626 4.39998 51.8244 5.27998 51.8641 6.15997V13.5599C51.8641 13.7599 51.7846 13.8799 51.5861 13.8799H49.6402C49.4416 13.8799 49.3225 13.7999 49.3225 13.5999V0.559997C49.3225 0.359998 49.4019 0.239999 49.6005 0.239999L51.189 0.279999ZM75.7311 6.87997C75.7311 7.07997 75.6516 7.27997 75.5325 7.43997C75.4134 7.55996 75.2942 7.63996 75.1354 7.63996H67.9078C67.7489 7.63996 67.6298 7.67996 67.5107 7.79996C67.3915 7.91996 67.3518 8.03996 67.3518 8.19996V8.79996C67.3518 9.19996 67.3915 9.59995 67.5107 9.99995C67.7092 10.7599 68.2255 11.3999 68.9403 11.6799C69.3771 11.8399 69.8537 11.9199 70.3302 11.9199C70.9259 11.9199 71.4819 11.7599 71.9981 11.4799C72.5144 11.1999 72.9512 10.7999 73.2689 10.32C73.3881 10.12 73.6263 10.08 73.8249 10.16C73.8646 10.16 73.8646 10.2 73.9043 10.2L74.9765 10.9599C75.2148 11.1199 75.2942 11.2799 75.2148 11.4399C74.778 12.3199 74.0632 12.9999 73.1895 13.3999C72.3158 13.7999 71.3627 14.0399 70.3699 13.9999C68.702 13.9999 67.3518 13.5199 66.359 12.5999C65.3265 11.6399 64.8102 10.28 64.8499 8.87996V5.35998C64.8499 4.59998 64.9691 3.87998 65.2471 3.19999C65.4853 2.55999 65.8825 1.95999 66.359 1.47999C66.8356 0.999995 67.4312 0.639997 68.0666 0.399998C68.7417 0.119999 69.4963 0 70.2508 0C71.0053 0 71.7599 0.119999 72.4747 0.399998C73.1101 0.639997 73.7057 0.999995 74.222 1.47999C74.6986 1.95999 75.056 2.55999 75.2942 3.19999C75.5722 3.87998 75.6914 4.63998 75.6914 5.35998L75.7311 6.87997ZM70.3302 2.19999C68.7814 2.11999 67.5107 3.31998 67.4312 4.87998C67.4312 4.95998 67.4312 4.99998 67.4312 5.07998V5.27998C67.4312 5.35998 67.4709 5.47997 67.5107 5.51997C67.5901 5.59997 67.7489 5.63997 67.8681 5.63997H72.9512C73.1498 5.63997 73.2689 5.51997 73.2689 5.27998V4.99998C73.2689 4.27998 73.0306 3.55998 72.5144 2.99999C71.9584 2.43999 71.1245 2.11999 70.3302 2.19999ZM96.1431 8.79996C96.1431 10.48 95.6666 11.7599 94.6738 12.6799C93.681 13.5999 92.3705 14.0399 90.7026 14.0399C88.9949 14.0399 87.6447 13.5999 86.6916 12.6799C85.7385 11.7599 85.262 10.48 85.262 8.79996V5.23998C85.262 3.63998 85.7385 2.35999 86.6519 1.43999C87.5653 0.479998 88.9155 0.0399998 90.6628 0.0399998C92.4102 0.0399998 93.7604 0.479998 94.7135 1.39999C95.6666 2.31999 96.1431 3.59998 96.1431 5.23998V8.79996ZM93.6413 5.23998C93.681 4.43998 93.403 3.67998 92.9264 3.03999C92.4499 2.47999 91.6954 2.15999 90.7026 2.15999C89.9083 2.11999 89.1141 2.43999 88.5581 2.99999C88.0021 3.59998 87.7241 4.39998 87.7639 5.19998V8.79996C87.7241 9.59995 87.9624 10.36 88.439 10.9999C88.8758 11.5599 89.6303 11.8799 90.7026 11.8799C91.7748 11.8799 92.4896 11.5999 92.9661 10.9999C93.4427 10.36 93.7207 9.55995 93.681 8.75996V5.23998H93.6413ZM116.714 13.8799H114.808C114.689 13.8799 114.53 13.7999 114.53 13.6799C114.53 13.6399 114.53 13.6399 114.53 13.5999V5.27998C114.57 4.47998 114.292 3.67998 113.775 3.07999C113.18 2.47999 112.385 2.15999 111.551 2.19999C110.757 2.15999 109.963 2.47999 109.367 3.03999C108.811 3.63998 108.533 4.43998 108.573 5.23998V13.5599C108.613 13.7199 108.494 13.8399 108.335 13.8799C108.295 13.8799 108.295 13.8799 108.255 13.8799H106.429C106.23 13.8799 106.111 13.7999 106.111 13.5999V0.559997C106.111 0.359998 106.19 0.239999 106.389 0.239999H108.176C108.295 0.239999 108.414 0.319999 108.454 0.439998C108.454 0.479998 108.454 0.479998 108.454 0.519998V0.999995C108.454 1.19999 108.533 1.27999 108.652 1.27999C108.732 1.23999 108.811 1.19999 108.891 1.15999C109.764 0.439998 110.837 0.0399998 111.988 0.0799996C113.537 0.0799996 114.768 0.559997 115.642 1.47999C116.555 2.51999 117.071 3.87998 116.992 5.23998V13.5599C116.992 13.7999 116.913 13.8799 116.714 13.8799Z" fill="#28B0A9"/>
</svg>
