<svg width="19" height="11" viewBox="0 0 19 11" fill="none" xmlns="http://www.w3.org/2000/svg">
<path d="M16.3522 6.66001C16.9824 7.25944 17.6476 7.82341 18.2129 8.48328C18.4626 8.77652 18.699 9.07912 18.8798 9.41942C19.1361 9.90318 18.904 10.4355 18.4587 10.4644L15.6908 10.4632C14.9768 10.5209 14.4073 10.2409 13.9285 9.76544C13.5452 9.38518 13.1903 8.98048 12.8218 8.58739C12.6708 8.42672 12.5127 8.27555 12.3238 8.15605C11.9459 7.91712 11.6179 7.99028 11.402 8.37418C11.182 8.76466 11.1322 9.19703 11.1106 9.6322C11.0809 10.2671 10.8839 10.4341 10.2292 10.4631C8.82996 10.5274 7.50204 10.3212 6.26844 9.6336C5.18086 9.02743 4.33748 8.17168 3.60342 7.20288C2.17418 5.31643 1.07966 3.24353 0.0959561 1.11256C-0.125468 0.632445 0.0364643 0.374724 0.580256 0.365602C1.48325 0.348514 2.38611 0.34973 3.29016 0.364386C3.65717 0.369616 3.90013 0.574674 4.04183 0.912424C4.53038 2.08263 5.12817 3.19598 5.87853 4.22796C6.07835 4.50271 6.28211 4.77745 6.57227 4.97084C6.89326 5.18496 7.13766 5.11399 7.28867 4.76566C7.38449 4.54479 7.42644 4.30689 7.44804 4.07033C7.51958 3.25648 7.52901 2.44404 7.40353 1.63305C7.3265 1.12691 7.03384 0.799253 6.5154 0.703474C6.25084 0.654642 6.29023 0.558741 6.41832 0.411637C6.64081 0.157929 6.85006 0 7.26719 0H10.3954C10.8879 0.0946843 10.9973 0.310202 11.0647 0.792928L11.0674 4.17791C11.062 4.36478 11.1632 4.91933 11.5087 5.04302C11.7853 5.13108 11.9675 4.91556 12.1335 4.74474C12.8825 3.97036 13.417 3.0552 13.8946 2.10756C14.1065 1.69088 14.2887 1.25814 14.4653 0.825767C14.5962 0.504922 14.8015 0.347054 15.1725 0.354048L18.1832 0.356663C18.2725 0.356663 18.3628 0.35794 18.4493 0.372352C18.9566 0.456577 19.0956 0.669176 18.939 1.15178C18.6921 1.90895 18.2117 2.53994 17.742 3.17384C17.2399 3.85062 16.7029 4.50423 16.205 5.18502C15.7476 5.8067 15.7839 6.12006 16.3522 6.66001Z" fill="white"/>
</svg>
