<svg width="99" height="92" viewBox="0 0 99 92" fill="none" xmlns="http://www.w3.org/2000/svg">
<path fill-rule="evenodd" clip-rule="evenodd" d="M88.7369 65.8898C86.4076 65.8898 84.3094 65.8898 82.2075 65.8898C72.368 65.8898 62.5176 65.8852 52.68 65.8971C51.6552 65.8971 50.612 65.9586 49.5899 66.044C47.0343 66.2643 44.7655 65.4143 42.8295 63.8777C42.2071 63.3821 41.9331 62.2448 41.8093 61.3535C41.4683 58.8944 41.9816 56.6024 43.8388 54.7997C44.2687 54.3784 44.8178 54.0856 45.5704 53.5523C45.5704 55.4211 45.5328 56.9733 45.5795 58.5218C45.6565 61.0368 47.7859 62.7726 50.2233 62.3604C51.9118 62.0759 53.2685 60.3502 53.3198 58.3152C53.3712 56.1536 53.4087 53.9892 53.3583 51.8404C53.3391 51.0629 53.6095 50.9069 54.3199 50.7609C59.8565 49.6457 65.3372 50.1671 70.751 51.398C73.1784 51.9542 75.3004 53.2484 76.6039 55.5937C76.7808 55.9204 77.4573 56.1123 77.901 56.115C82.9335 56.1426 87.9724 56.2426 93.0002 56.0994C96.0536 56.0076 98.271 58.3878 98.3288 61.1167C98.5277 69.7532 98.8 78.386 98.9989 87.0134C99.0585 89.668 96.7787 91.9499 94.1864 91.9994C91.7215 92.0398 89.3419 89.7983 89.2649 87.2401C89.0632 80.678 88.9055 74.1132 88.7396 67.5438C88.7259 67.0601 88.7369 66.5745 88.7369 65.8898Z" fill="white"/>
<path fill-rule="evenodd" clip-rule="evenodd" d="M16.6249 26.1171C15.8238 25.1965 15.0795 24.3832 14.38 23.5305C12.5871 21.3339 10.4842 20.9549 8.54733 22.5098C6.63334 24.0491 6.44817 26.5146 8.21 28.5927C9.57399 30.1944 11.048 31.7053 12.4881 33.2446C12.698 33.4778 12.9455 33.7476 13.2232 33.8238C15.1482 34.3406 14.9805 35.6293 14.8127 37.2366C14.4919 40.3574 14.1985 43.5223 14.425 46.6322C14.5909 48.9049 15.734 51.0895 16.2207 53.3613C17.7983 60.6981 18.3519 68.1111 17.46 75.5965C16.9439 79.8978 16.1382 84.1036 14.5588 88.1543C13.8126 90.0544 11.7245 92.395 9.16883 91.8838C5.98343 91.2541 4.03827 88.4499 5.22901 85.3887C6.879 81.1388 7.46933 76.7118 7.94691 72.2499C8.42541 67.7944 8.0835 63.3618 7.253 58.9568C6.96242 57.4157 6.76992 55.8488 6.39867 54.3315C6.28684 53.8625 5.81476 53.2769 5.37385 53.119C2.3617 52.0542 1.06554 49.6236 0.59896 46.7882C-0.380951 40.776 -0.234285 34.7784 1.60545 28.9057C2.25353 26.8239 2.82003 24.6806 3.76144 22.7328C4.82752 20.5207 6.66817 19.0704 9.15324 18.4371C14.3782 17.1052 17.6314 20.7768 16.6249 26.1171Z" fill="white"/>
<path fill-rule="evenodd" clip-rule="evenodd" d="M61.8505 24.777C62.0806 31.2216 56.0921 37.0429 49.4041 37.0383C43.1378 37.0337 36.9054 31.6172 37.0108 24.4365C37.1098 17.902 42.6795 12.1926 49.6012 12.2679C56.6366 12.3404 62.1943 18.4077 61.8505 24.777ZM49.3491 29.3702C52.177 29.4023 54.2532 27.4288 54.278 24.6669C54.289 22.0729 52.0166 19.6818 49.5003 19.6478C47.0034 19.6212 44.4752 22.0013 44.5944 24.5365C44.7383 27.4224 46.0702 29.3225 49.3491 29.3702Z" fill="white"/>
<path fill-rule="evenodd" clip-rule="evenodd" d="M85.4781 69.2117C85.4781 70.8979 85.4781 72.4565 85.4781 74.0922C64.3674 74.0922 43.3355 74.0922 22.2056 74.0922C22.2056 72.4639 22.2056 70.875 22.2056 69.2117C43.2879 69.2117 64.3307 69.2117 85.4781 69.2117Z" fill="white"/>
<path fill-rule="evenodd" clip-rule="evenodd" d="M22.1825 57.793C21.902 53.9259 26.3175 48.6479 31.3711 48.9949C35.992 49.3152 39.9914 53.2852 39.907 58.0362C39.8282 62.6909 35.7601 66.6727 31.1199 66.6865C26.5962 66.7058 22.0358 62.7515 22.1825 57.793Z" fill="white"/>
<path fill-rule="evenodd" clip-rule="evenodd" d="M19.1739 0.00111122C22.9277 -0.0677313 27.6567 3.06506 27.7667 8.58531C27.8666 13.9358 23.9305 17.5009 19.2757 17.6909C14.553 17.8846 10.4079 13.9275 10.3456 9.11402C10.275 3.78286 14.1195 0.252616 19.1739 0.00111122Z" fill="white"/>
<path fill-rule="evenodd" clip-rule="evenodd" d="M31.0769 38.763C26.7393 38.8144 22.6189 37.879 18.6827 36.0845C14.5642 34.2074 11.2248 31.3518 8.6132 27.6756C7.25013 25.76 7.61038 24.0444 9.42445 22.9374C10.5052 22.2802 11.6309 22.1655 12.6832 23.0081C13.1681 23.3973 13.6466 23.8315 14.0151 24.3271C18.9577 30.925 25.8107 32.8269 33.6161 32.2312C35.8032 32.0687 38.0371 31.2793 39.2737 34.0036C39.3351 34.1422 39.5863 34.1845 39.7054 34.3139C40.1546 34.827 41.063 35.6403 40.9558 35.8229C40.4938 36.5811 39.8301 37.4182 39.0464 37.7129C37.7731 38.1939 36.3468 38.3325 34.9709 38.5096C33.6802 38.6666 32.374 38.6849 31.0769 38.763Z" fill="white"/>
<path fill-rule="evenodd" clip-rule="evenodd" d="M46.3927 38.4153C48.4377 38.4153 50.3407 38.4153 52.395 38.4153C52.4216 38.6998 52.4738 39.0835 52.4738 39.4663C52.4811 45.6171 52.4885 51.7625 52.472 57.9197C52.4683 59.2094 52.2776 60.4761 51.0255 61.1865C49.0556 62.311 46.8418 61.1902 46.4669 58.9276C46.3927 58.4439 46.3963 57.9519 46.3945 57.4608C46.3908 51.5284 46.3927 45.5969 46.3927 39.6719C46.3927 39.2322 46.3927 38.7916 46.3927 38.4153Z" fill="white"/>
<path fill-rule="evenodd" clip-rule="evenodd" d="M49.4077 28.3779C47.4103 28.3587 45.8566 26.723 45.8465 24.6127C45.8337 22.6282 47.5176 20.9099 49.4829 20.8998C51.3951 20.8915 53.1193 22.7016 53.0533 24.677C52.9983 26.7744 51.3951 28.3972 49.4077 28.3779Z" fill="white"/>
</svg>
