<svg width="91" height="92" viewBox="0 0 91 92" fill="none" xmlns="http://www.w3.org/2000/svg">
<path fill-rule="evenodd" clip-rule="evenodd" d="M41.9136 92C39.4454 91.0589 36.8509 90.3633 34.5308 89.1348C26.1474 84.6988 21.3149 74.4075 22.9283 65.4824C24.8506 54.854 32.7143 47.315 43.0335 46.1035C55.1938 44.6773 65.8881 52.9693 67.9924 65.7151C69.9062 77.3112 62.3685 88.429 51.2925 91.23C50.5298 91.4242 49.7951 91.7408 49.0493 92C46.6699 92 44.2931 92 41.9136 92ZM45.5154 48.92C34.5756 48.9054 25.5049 58.0999 25.5608 69.1501C25.615 79.9839 34.5926 89.0458 45.3351 89.1108C56.3213 89.1758 65.3717 80.0874 65.3641 68.9953C65.3556 58.0033 56.3899 48.9345 45.5154 48.92Z" fill="white"/>
<path fill-rule="evenodd" clip-rule="evenodd" d="M0 17.1878C2.02474 14.7239 4.04779 12.2599 6.296 9.52045C13.5172 22.0242 20.5945 34.2782 27.6151 46.4337C25.5158 48.7728 23.5376 50.9784 21.4325 53.3268C18.2955 48.0687 15.1754 42.8105 12.0274 37.5703C8.03041 30.9193 4.01139 24.2828 0.000846403 17.6404C-6.13913e-08 17.489 0 17.3375 0 17.1878Z" fill="white"/>
<path fill-rule="evenodd" clip-rule="evenodd" d="M73.8212 0.242981C72.2993 2.85581 70.9762 5.27529 69.4831 7.58183C69.1284 8.12938 68.2007 8.58881 67.5337 8.59137C52.8331 8.64784 38.1317 8.64784 23.4303 8.59137C22.7642 8.58881 21.8356 8.13024 21.4809 7.5844C19.9869 5.277 18.6639 2.85752 17.1411 0.242981C36.0892 0.242981 54.802 0.242981 73.8212 0.242981Z" fill="white"/>
<path fill-rule="evenodd" clip-rule="evenodd" d="M13.9846 0.0230713C21.9719 13.8632 29.8118 27.4458 37.7313 41.1653C35.0751 42.3913 32.5704 43.548 29.8965 44.7834C26.9762 39.7519 24.0482 34.7256 21.1389 29.689C17.1377 22.7651 13.1906 15.8087 9.12083 8.92671C8.33362 7.59549 8.3497 6.71684 9.37393 5.59009C10.9204 3.88585 12.3222 2.04643 13.9846 0.0230713Z" fill="white"/>
<path fill-rule="evenodd" clip-rule="evenodd" d="M60.9081 44.715C58.4465 43.5797 55.9774 42.4384 53.234 41.1713C61.09 27.5553 68.952 13.9291 76.9883 0C78.8074 2.2458 80.5553 4.33162 82.1992 6.50127C82.4641 6.84948 82.4734 7.68706 82.2432 8.08574C75.1684 20.2969 68.0488 32.4816 60.9081 44.715Z" fill="white"/>
<path fill-rule="evenodd" clip-rule="evenodd" d="M84.6779 9.49316C86.921 12.266 88.9271 14.7445 91.0001 17.3068C83.8289 29.3426 76.6898 41.3271 69.5372 53.3329C67.4303 50.981 65.453 48.7772 63.3521 46.4347C70.3472 34.3159 77.4042 22.0919 84.6779 9.49316Z" fill="white"/>
<path fill-rule="evenodd" clip-rule="evenodd" d="M23.9194 11.7637C38.4312 11.7637 52.5663 11.7637 67.046 11.7637C65.4639 14.4784 64.0622 16.9962 62.5191 19.4234C62.2499 19.8461 61.3823 20.0625 60.7897 20.0651C50.5568 20.1027 40.3231 20.1078 30.0893 20.0531C29.4655 20.0505 28.5835 19.669 28.2669 19.1719C26.7923 16.8611 25.4727 14.4501 23.9194 11.7637Z" fill="white"/>
<path fill-rule="evenodd" clip-rule="evenodd" d="M62.4622 69.1031C62.4546 78.8529 55.0683 86.1952 45.2807 86.1772C35.7943 86.161 28.4961 78.6647 28.4843 68.9269C28.4724 59.219 35.9078 51.8357 45.6785 51.8528C55.1767 51.8691 62.469 59.3645 62.4622 69.1031ZM43.3363 80.487C45.2002 80.487 46.6536 80.487 48.2213 80.487C48.2213 72.7717 48.2213 65.1813 48.2213 57.6132C44.9573 57.2171 45.0547 57.3103 43.1789 59.3482C42.092 60.5289 40.7199 61.5187 39.3182 62.3067C36.5925 63.8364 36.5164 63.821 37.3357 67.3082C39.2818 66.3346 41.1787 65.3875 43.3363 64.3087C43.3363 69.7294 43.3363 75.0004 43.3363 80.487Z" fill="white"/>
</svg>
