<svg width="90" height="63" viewBox="0 0 90 63" fill="none" xmlns="http://www.w3.org/2000/svg">
<path d="M11.4335 13.2323L32.2594 16.1192C32.9864 18.1091 36.6494 27.905 37.3364 29.6595H37.3262C31.293 32.8781 25.2606 36.0849 19.2242 39.3018C21.3198 38.8874 23.442 38.6807 25.5759 38.6807C28.3664 38.6807 31.1021 39.0461 33.7141 39.7541C38.9828 41.1997 43.7421 43.5044 48.3441 45.7475C52.4445 47.7374 56.3265 49.6243 60.2 50.707C60.7462 50.8623 61.2721 50.9931 61.7979 51.107C57.2069 40.9702 44.8619 13.6567 42.4228 7.64399C41.2772 4.80935 39.6988 3.75702 37.46 3.44562L13.0001 0.0540167C9.6251 -0.409281 6.53572 2.15869 6.09673 5.79755C5.6773 9.43726 8.0585 12.7681 11.4335 13.2323Z" fill="white"/>
<path d="M1.59398 60.6058C2.27164 61.1316 3.04712 61.3805 3.82181 61.3805C3.9924 61.3805 4.15517 61.3687 4.32028 61.3367C5.33286 61.1949 6.29066 60.616 6.92919 59.6573C9.40664 55.9324 13.2418 53.0041 17.7068 51.3964C20.2696 50.4791 22.9458 50.0167 25.5766 50.0167C35.11 50.0167 43.285 56.1627 51.8927 59.7003C56.4994 61.5983 61.3071 63 66.5414 63C68.7411 63 71.0158 62.7485 73.3775 62.1814C78.9333 60.8615 83.6973 58.0151 87.1341 54.0243C87.9589 53.0699 88.7086 52.0564 89.3651 50.977C90.5326 49.0791 90.0428 46.5221 88.2829 45.2622C87.6349 44.798 86.9072 44.5803 86.1787 44.5803C84.9368 44.5803 83.7224 45.2293 82.9891 46.4293C82.6902 46.9137 82.367 47.377 82.0133 47.8293C79.6235 50.8994 76.0373 53.1079 71.7342 54.129C67.7645 55.0657 63.3863 54.7872 59.4729 53.6969C55.3608 52.5408 51.3825 50.6108 47.1569 48.5601C42.6644 46.3846 38.028 44.1271 32.9972 42.7448C30.6058 42.0815 28.1002 41.7659 25.5664 41.7659C22.1163 41.7659 18.6075 42.3718 15.2693 43.5702C12.352 44.6234 9.64453 46.085 7.21872 47.9331C4.65363 49.88 2.46571 52.2032 0.705827 54.8429C0.591579 55.0167 0.496112 55.1914 0.410035 55.3762C-0.423346 57.1602 0.0344262 59.4008 1.59398 60.6058Z" fill="white"/>
<path d="M84.3329 26.9152C84.3329 34.9541 78.2942 41.4664 70.8423 41.4664C63.3927 41.4664 57.3494 34.9541 57.3494 26.9152C57.3494 18.8805 63.3935 12.3656 70.8423 12.3656C78.295 12.3656 84.3329 18.8805 84.3329 26.9152Z" fill="white"/>
</svg>
