<svg width="54" height="58" viewBox="0 0 54 58" fill="none" xmlns="http://www.w3.org/2000/svg">
<path d="M3.06412 47.2166C3.37793 47.2677 3.6909 47.3105 4.00471 47.3456C9.34953 47.9572 14.6508 46.5674 19.0249 43.384C22.481 40.8724 25.0518 37.4637 26.507 33.543C32.733 37.648 34.7539 45.9818 30.9673 52.5153C29.9589 54.252 30.5506 56.4778 32.2845 57.4856C32.7313 57.7462 33.21 57.8978 33.6945 57.9539C35.0853 58.1131 36.5029 57.4555 37.2502 56.1654C42.7381 46.6989 40.1607 34.7368 31.656 28.2904C31.6627 28.2485 31.6719 28.2083 31.6761 28.1673L33.3882 13.196C36.313 15.8265 40.0092 17.5087 43.9423 17.9603C46.5206 18.2568 49.2026 18.0231 51.8328 17.1812C53.4704 16.6584 54.3742 14.9042 53.852 13.2647C53.329 11.6244 51.5775 10.7197 49.9382 11.2441C43.2578 13.3803 36.0904 9.67752 33.9564 2.99235C33.692 2.16048 33.1087 1.51961 32.3857 1.15687C31.7673 0.66595 31.0276 0.34007 30.2083 0.246243L28.2777 0.0250798C27.8928 -0.0176449 27.5129 -0.00424077 27.1438 0.0535633C17.117 -0.631708 8.19805 6.71862 7.04323 16.8151C6.84741 18.524 8.0742 20.0688 9.78217 20.2657C11.491 20.4626 13.0341 19.2345 13.2299 17.5246C13.8525 12.0818 17.8358 7.82695 22.866 6.6005L20.5446 26.8922C20.5095 27.2047 20.5036 27.5122 20.5187 27.8163C20.4793 27.9536 20.4467 28.0919 20.4233 28.236C19.83 31.9848 17.8182 35.2755 14.7563 37.503C11.6943 39.7297 7.94784 40.632 4.20136 40.0347C2.22059 39.7222 0.359489 41.0735 0.0456781 43.0564C-0.269806 45.041 1.08251 46.9016 3.06412 47.2166Z" fill="white"/>
</svg>
