<svg width="108" height="50" viewBox="0 0 108 50" fill="none" xmlns="http://www.w3.org/2000/svg">
<path fill-rule="evenodd" clip-rule="evenodd" d="M53.6871 13.1963C55.6671 11.3825 57.5401 9.53859 59.5461 7.8541C65.289 3.03023 71.822 0.0903955 79.4169 0.015195C93.2368 -0.120166 104.102 7.49915 107.227 20.7354C108.609 26.6001 108.01 32.4126 106.445 38.1709C106.25 38.8898 105.82 38.9039 105.246 38.9029C96.6418 38.8949 88.0369 38.8989 79.4329 38.8989C74.249 38.8989 69.065 38.8768 63.881 38.9169C63.047 38.9239 62.673 38.6562 62.439 37.8741C61.9941 36.3912 61.4611 34.9353 60.9401 33.4764C60.4171 32.0085 59.7551 31.453 58.6071 31.457C57.3911 31.459 56.6461 32.0446 56.1511 33.4945C54.3731 38.7094 52.6151 43.9323 50.8481 49.1522C50.7801 49.3507 50.6861 49.5402 50.5351 49.9002C50.3611 49.5021 50.2241 49.2394 50.1291 48.9617C46.5962 38.6763 43.0662 28.3858 39.5372 18.0964C39.5142 18.0292 39.4962 17.958 39.4722 17.8909C38.9322 16.3357 37.9462 15.4423 36.7832 15.4554C35.6542 15.4674 34.7132 16.3247 34.1882 17.8548C31.7073 25.076 29.2333 32.3003 26.7553 39.5225C26.6303 39.8895 26.4903 40.2515 26.2743 40.8481C25.4093 38.3524 24.6443 36.0854 23.8293 33.8364C23.6243 33.2739 23.3463 32.6843 22.9433 32.2612C21.7233 30.9838 20.0053 31.2836 19.2003 32.8538C18.2964 34.6165 17.3804 36.3741 16.5134 38.1559C16.2364 38.7244 15.8744 38.9169 15.2574 38.9149C11.0464 38.8929 6.83343 38.9169 2.62146 38.8728C2.27846 38.8698 1.71347 38.5239 1.63047 38.2311C-0.712517 29.8668 -0.866517 21.6288 3.41045 13.7639C7.51943 6.2067 14.0494 2.02155 22.3773 0.526559C32.9943 -1.37652 42.0172 1.97041 49.8511 9.08638C50.5971 9.76319 51.3021 10.4901 51.9881 11.2301C52.6491 11.942 53.2601 12.7 53.6871 13.1963Z" fill="white"/>
</svg>
