<svg width="83" height="13" viewBox="0 0 83 13" fill="none" xmlns="http://www.w3.org/2000/svg">
<path d="M76.9375 0H6.06163C2.71923 0 0 2.72053 0 6.06823C0 9.41262 2.71923 12.1348 6.06163 12.1348H76.9375C80.2791 12.1348 83 9.41345 83 6.06823C82.9992 2.72136 80.2791 0 76.9375 0ZM6.06163 10.1536C3.81041 10.1536 1.97988 8.32108 1.97988 6.06823C1.97988 3.81372 3.81041 1.98038 6.06163 1.98038H8.93106C7.02917 2.36748 5.59612 4.04964 5.59612 6.06823C5.59612 8.08683 7.02917 9.76816 8.93106 10.1536H6.06163ZM10.5923 10.1536C12.495 9.76816 13.9264 8.08683 13.9264 6.06823C13.9264 4.04964 12.495 2.36748 10.5923 1.98038H72.406C70.505 2.36748 69.0711 4.04964 69.0711 6.06823C69.0711 8.08683 70.505 9.76816 72.4077 10.1536H10.5923ZM76.9375 10.1536H74.0698C75.9708 9.76816 77.4047 8.08683 77.4047 6.06823C77.4047 4.04964 75.9708 2.36748 74.0698 1.98038H76.9375C79.1888 1.98038 81.0185 3.81372 81.0185 6.06823C81.0185 8.32108 79.1888 10.1536 76.9375 10.1536Z" fill="white"/>
</svg>
