<svg width="39" height="39" viewBox="0 0 39 39" fill="none" xmlns="http://www.w3.org/2000/svg">
<path d="M6.12018 38.8315H32.8639C36.2513 38.8315 39 36.1057 39 32.7393V6.11085C39 2.72859 36.2513 0 32.8639 0H6.12018C2.7403 0 0 2.72859 0 6.11085V32.7384C0 36.1057 2.73936 38.8315 6.12018 38.8315ZM4.84382 6.46756C4.84382 5.5543 5.58282 4.82219 6.49437 4.82219H32.5047C33.4228 4.82219 34.1468 5.5543 34.1468 6.46756V32.3668C34.1468 33.2772 33.4238 34.0289 32.5047 34.0289H6.49344C5.58188 34.0289 4.84288 33.2763 4.84288 32.3668V6.46756H4.84382Z" fill="white"/>
</svg>
