<svg width="90" height="22" viewBox="0 0 90 22" fill="none" xmlns="http://www.w3.org/2000/svg">
<path d="M1.59398 18.8399C2.27164 19.3657 3.04712 19.6146 3.82181 19.6146C3.9924 19.6146 4.15517 19.6028 4.32028 19.5707C5.33286 19.429 6.29066 18.85 6.92919 17.8914C9.40664 14.1664 13.2418 11.2381 17.7068 9.63051C20.2696 8.7132 22.9458 8.25074 25.5766 8.25074C35.11 8.25074 43.285 14.3968 51.8927 17.9344C56.4994 19.8323 61.3071 21.234 66.5414 21.234C68.7411 21.234 71.0158 20.9826 73.3775 20.4155C78.9333 19.0956 83.6973 16.2492 87.1341 12.2584C87.9589 11.3039 88.7086 10.2904 89.3651 9.21109C90.5326 7.31318 90.0428 4.75619 88.2829 3.49625C87.6349 3.03211 86.9072 2.81438 86.1787 2.81438C84.9368 2.81438 83.7224 3.46334 82.9891 4.66335C82.6902 5.14775 82.367 5.61105 82.0133 6.06338C79.6235 9.13346 76.0373 11.3419 71.7342 12.363C67.7645 13.2998 63.3863 13.0213 59.4729 11.931C55.3608 10.7748 51.3825 8.84484 47.1569 6.79419C42.6644 4.61863 38.028 2.36122 32.9972 0.978919C30.6058 0.315619 28.1002 0 25.5664 0C22.1163 0 18.6075 0.605916 15.2693 1.80424C12.352 2.85742 9.64453 4.31904 7.21872 6.16717C4.65363 8.11403 2.46571 10.4373 0.705827 13.077C0.591579 13.2508 0.496112 13.4255 0.410035 13.6103C-0.423346 15.3943 0.0344262 17.6348 1.59398 18.8399Z" fill="white"/>
</svg>
