<svg width="105" height="41" viewBox="0 0 105 41" fill="none" xmlns="http://www.w3.org/2000/svg">
<path d="M103.223 30.7936L101.479 16.6202C101.139 13.9111 98.7408 11.9125 95.9854 12.0591L92.1529 12.271L80.2511 1.59163C79.1092 0.564774 77.628 0 76.0783 0H51.9017C46.4875 0 41.2178 1.84835 36.9755 5.22391L23.496 16.0199L5.34476 20.5353C3.03848 21.1178 1.38658 23.1967 1.38658 25.5977V30.7936C0.615946 30.7936 0 31.4107 0 32.1752V39.072C0 40.0484 0.795011 40.8447 1.78221 40.8447H12.017C11.9833 40.405 11.8886 39.9821 11.8886 39.5275C11.8886 32.1239 17.9196 26.1336 25.3504 26.1336C32.7848 26.1336 38.8037 32.1239 38.8037 39.5275C38.8037 39.9821 38.7024 40.405 38.6621 40.8447H67.0266C66.9769 40.405 66.8972 39.9821 66.8972 39.5275C66.8972 32.1239 72.9123 26.1336 80.3477 26.1336C87.784 26.1336 93.7982 32.1239 93.7982 39.5275C93.7982 39.9821 93.7166 40.405 93.6669 40.8447H103.221C104.201 40.8447 105 40.0475 105 39.072V32.5794C105.02 31.5899 104.217 30.7936 103.223 30.7936ZM67.3369 13.3753L33.6052 15.079L40.0656 9.91666C43.5794 7.10773 47.9322 5.56464 52.4314 5.56464H67.3369V13.3753ZM72.9488 13.099V5.58051H75.1482C75.8992 5.58051 76.6323 5.8587 77.2023 6.36186L84.0818 12.5286L72.9488 13.099Z" fill="white"/>
</svg>
