<svg width="24" height="24" viewBox="0 0 24 24" fill="none" xmlns="http://www.w3.org/2000/svg">
<path fill-rule="evenodd" clip-rule="evenodd" d="M14.9186 9.09768C17.3797 9.09768 19.737 9.09356 22.0974 9.09974C23.6484 9.10283 23.9278 9.38296 23.9278 10.8938C23.9278 11.7075 23.9329 12.5242 23.9226 13.3399C23.9072 14.6087 23.634 14.9043 22.3418 14.9177C20.2362 14.9393 18.1264 14.9681 16.0218 14.9105C15.0922 14.8857 14.8138 15.1999 14.8405 16.1155C14.9001 18.2278 14.8683 20.3422 14.8539 22.4545C14.8457 23.7234 14.6053 23.9592 13.3594 23.9839C12.437 24.0025 11.5115 24.0056 10.5871 23.9901C9.41 23.9705 9.09671 23.6502 9.09158 22.437C9.07925 19.9941 9.0885 17.5511 9.0885 14.9259C7.55393 14.9259 6.09127 14.9239 4.62655 14.9259C3.62815 14.928 2.63182 14.9517 1.63137 14.9362C0.393652 14.9146 0.0310714 14.5572 0.0115555 13.3532C-0.00385182 12.4634 -0.00385182 11.5736 0.0115555 10.6837C0.0310714 9.49007 0.411116 9.10798 1.62726 9.1018C4.06264 9.08944 6.49597 9.09768 9.08747 9.09768C9.08747 7.91329 9.08747 6.81438 9.08747 5.71753C9.08747 4.3457 9.0772 2.97386 9.08952 1.60306C9.10082 0.387769 9.45005 0.0396619 10.6909 0.0139142C11.5783 -0.00256426 12.4668 -0.00771549 13.3543 0.0170022C14.5211 0.0478994 14.8549 0.387769 14.8621 1.57525C14.8755 3.65154 14.859 5.7268 14.8632 7.80308C14.8621 8.1996 14.896 8.59509 14.9186 9.09768Z" fill="white"/>
</svg>
