<svg width="34" height="17" viewBox="0 0 34 17" fill="none" xmlns="http://www.w3.org/2000/svg">
<path fill-rule="evenodd" clip-rule="evenodd" d="M23.8673 16.7582C19.4221 16.8109 15.1995 15.8524 11.1658 14.0134C6.9451 12.0897 3.5229 9.16333 0.846578 5.39598C-0.550294 3.43283 -0.181114 1.67473 1.67794 0.540298C2.78548 -0.133214 3.93905 -0.250797 5.01747 0.612728C5.51441 1.01157 6.00477 1.4565 6.3824 1.96446C11.4476 8.72592 18.4705 10.675 26.4694 10.0645C28.7108 9.89798 31 9.08901 32.2673 11.8809C32.3302 12.0229 32.5876 12.0662 32.7097 12.1988C33.17 12.7247 34.101 13.5581 33.9911 13.7453C33.5176 14.5223 32.8375 15.3801 32.0343 15.6821C30.7295 16.175 29.2678 16.317 27.8578 16.4986C26.5351 16.6594 25.1965 16.6783 23.8673 16.7582Z" fill="white"/>
</svg>
