<svg width="18" height="25" viewBox="0 0 18 25" fill="none" xmlns="http://www.w3.org/2000/svg">
<path d="M5.57246 16.1363C6.09013 16.2062 6.7667 16.2363 7.49884 16.2363C10.83 16.2363 13.6865 15.4277 15.5972 13.6231C17.0791 12.2224 17.8833 10.1576 17.8833 7.73181C17.8833 5.29626 16.8158 3.24027 15.2248 1.98804C13.5607 0.65718 11.0874 0 7.61193 0C4.17057 0 1.73238 0.2155 0 0.505747V25H5.57149V16.1363H5.57246ZM5.57246 4.45562C5.98581 4.33234 6.74817 4.23235 7.89757 4.23235C10.716 4.23235 12.3089 5.59913 12.3089 7.88227C12.3089 10.4139 10.4576 11.9292 7.46082 11.9292C6.64191 11.9292 6.05698 11.8962 5.57149 11.7788V4.45562H5.57246Z" fill="white"/>
</svg>
