<svg width="58" height="42" viewBox="0 0 58 42" fill="none" xmlns="http://www.w3.org/2000/svg">
<path fill-rule="evenodd" clip-rule="evenodd" d="M47.192 15.7977C44.8545 15.7977 42.7489 15.7977 40.6396 15.7977C30.7654 15.7977 20.8802 15.7931 11.0079 15.805C9.97944 15.805 8.9326 15.8668 7.90691 15.9524C5.34224 16.1735 3.0655 15.3205 1.12268 13.7785C0.49807 13.2811 0.223023 12.1398 0.0988365 11.2454C-0.243365 8.77767 0.271778 6.47758 2.13549 4.66846C2.56692 4.24566 3.11794 3.95182 3.87317 3.41664C3.87317 5.29208 3.83545 6.84972 3.88237 8.40368C3.95964 10.9276 6.09656 12.6695 8.54256 12.2559C10.237 11.9703 11.5985 10.2386 11.65 8.19643C11.7015 6.02714 11.7392 3.8551 11.6886 1.69871C11.6693 0.918503 11.9407 0.761914 12.6536 0.615453C18.2098 -0.503732 23.7098 0.0194758 29.1427 1.25472C31.5786 1.81293 33.7082 3.11174 35.0163 5.46525C35.1938 5.79318 35.8727 5.9857 36.3179 5.98846C41.3681 6.01609 46.4248 6.11649 51.4704 5.97279C54.5346 5.88068 56.7598 8.2692 56.8178 11.0077C57.0174 19.6747 57.2906 28.3381 57.4902 36.9959C57.55 39.6598 55.2623 41.9497 52.6608 41.9995C50.1872 42.04 47.7991 39.7906 47.7219 37.2234C47.5195 30.6381 47.3613 24.0502 47.1948 17.4576C47.181 16.9721 47.192 16.4848 47.192 15.7977Z" fill="white"/>
</svg>
