<svg width="34" height="35" viewBox="0 0 34 35" fill="none" xmlns="http://www.w3.org/2000/svg">
<path fill-rule="evenodd" clip-rule="evenodd" d="M34 17.2616C33.9924 27.0177 26.6014 34.3647 16.8073 34.3468C7.31484 34.3305 0.0118724 26.8293 1.41548e-05 17.0852C-0.0118441 7.37105 7.42833 -0.0170923 17.2054 2.96992e-05C26.7098 0.0162956 34.0068 7.51659 34 17.2616ZM14.8617 28.6528C16.7269 28.6528 18.1812 28.6528 19.7499 28.6528C19.7499 20.9325 19.7499 13.3372 19.7499 5.76415C16.4838 5.36778 16.5812 5.46109 14.7042 7.50032C13.6166 8.68174 12.2436 9.67225 10.841 10.4607C8.11357 11.9914 8.03734 11.976 8.85725 15.4655C10.8045 14.4912 12.7027 13.5435 14.8617 12.464C14.8617 17.8882 14.8617 23.1627 14.8617 28.6528Z" fill="white"/>
</svg>
