<svg width="46" height="47" viewBox="0 0 46 47" fill="none" xmlns="http://www.w3.org/2000/svg">
<path fill-rule="evenodd" clip-rule="evenodd" d="M19.4336 46.3885C16.9475 45.4406 14.3343 44.74 11.9974 43.5025C3.55339 39.0345 -1.314 28.6688 0.311022 19.6792C2.24724 8.97401 10.1677 1.38048 20.5616 0.160271C32.8098 -1.27623 43.5813 7.07563 45.7008 19.9136C47.6285 31.5935 40.0362 42.7916 28.8802 45.6129C28.112 45.8085 27.372 46.1274 26.6209 46.3885C24.2243 46.3885 21.8302 46.3885 19.4336 46.3885ZM23.0613 2.99708C12.0426 2.98243 2.90628 12.2434 2.96255 23.3735C3.01712 34.2855 12.0596 43.4129 22.8797 43.4784C33.9454 43.5439 43.0612 34.3898 43.0535 23.2175C43.045 12.146 34.0145 3.01172 23.0613 2.99708Z" fill="white"/>
</svg>
