<svg width="101" height="65" viewBox="0 0 101 65" fill="none" xmlns="http://www.w3.org/2000/svg">
<path fill-rule="evenodd" clip-rule="evenodd" d="M17.0537 15.0707C18.0329 17.9067 18.925 20.488 19.8161 23.0713C20.3502 24.6197 21.2434 25.419 22.4295 25.4159C23.5997 25.4129 24.5129 24.6037 25.044 23.0553C27.5204 15.8308 29.9877 8.60235 32.4621 1.37489C32.6002 0.972756 32.7572 0.577635 32.9732 0C34.2544 3.71953 35.4786 7.25755 36.6928 10.7986C39.1122 17.8525 41.5276 24.9085 43.945 31.9625C44.015 32.1671 44.084 32.3716 44.162 32.5722C44.6711 33.8819 45.5722 34.5949 46.6934 34.5789C47.8406 34.5638 48.7457 33.8669 49.2038 32.5481C50.1939 29.687 51.1501 26.8169 52.1222 23.9508C52.9394 21.533 53.7605 19.1151 54.6376 16.5258C54.8417 16.8357 54.9827 17.0112 55.0827 17.2077C55.6248 18.2617 56.5029 18.6438 57.6531 18.6418C67.8067 18.6277 77.9643 18.6327 88.1179 18.6327C91.7555 18.6327 95.3921 18.6337 99.0287 18.6388C99.3437 18.6388 99.6578 18.6739 100.153 18.7029C98.4176 22.0013 96.1582 24.719 93.6878 27.3544C93.4418 27.2331 93.2138 27.1468 93.0107 27.0215C78.5654 18.1022 60.1355 26.0548 56.685 42.7239C55.8508 46.7584 56.0999 50.7677 57.4291 54.6808C57.6821 55.4229 57.5401 55.8682 57.026 56.4719C54.9017 58.9639 52.8694 61.5402 50.807 64.0884C50.587 64.3602 50.391 64.65 50.1319 65C49.2998 63.8467 48.5267 62.7697 47.7486 61.6977C43.947 56.4578 39.0532 52.4064 33.8314 48.6838C27.8484 44.4177 21.8625 40.1476 16.0025 35.7161C11.1058 32.0146 6.55804 27.897 2.85545 22.9419C1.8923 21.6543 1.04617 20.2754 0 18.722C0.639101 18.6809 1.00716 18.6378 1.37522 18.6378C5.15582 18.6327 8.93942 18.5646 12.718 18.6648C14.5123 18.713 15.6935 18.1093 16.3286 16.4225C16.4796 16.0254 16.7306 15.6653 17.0537 15.0707Z" fill="white"/>
</svg>
