<svg width="18" height="74" viewBox="0 0 18 74" fill="none" xmlns="http://www.w3.org/2000/svg">
<path fill-rule="evenodd" clip-rule="evenodd" d="M16.6717 7.97679C15.8683 7.05354 15.1219 6.23799 14.4205 5.38287C12.6225 3.18015 10.5137 2.79999 8.57138 4.35929C6.65201 5.90294 6.46632 8.37536 8.2331 10.4593C9.60093 12.0656 11.0791 13.5807 12.5232 15.1243C12.7337 15.3581 12.9819 15.6288 13.2604 15.7052C15.1908 16.2234 15.0226 17.5158 14.8544 19.1275C14.5327 22.2572 14.2385 25.431 14.4655 28.5496C14.6319 30.8287 15.7782 33.0195 16.2663 35.2976C17.8484 42.6551 18.4036 50.0889 17.5092 57.5954C16.9916 61.9088 16.1836 66.1265 14.5998 70.1886C13.8515 72.094 11.7575 74.4412 9.19462 73.9285C6.00026 73.297 4.04964 70.4849 5.24373 67.4151C6.89836 63.1533 7.49035 58.7138 7.96928 54.2393C8.44912 49.7713 8.10624 45.3263 7.27341 40.9089C6.98201 39.3634 6.78897 37.7922 6.41668 36.2706C6.30453 35.8002 5.83112 35.213 5.38897 35.0546C2.36834 33.9869 1.06854 31.5494 0.600645 28.7061C-0.382023 22.6769 -0.234944 16.6625 1.60997 10.7732C2.25987 8.68556 2.82796 6.53623 3.77202 4.58297C4.8411 2.3646 6.68694 0.910241 9.179 0.275107C14.4187 -1.06051 17.6811 2.62142 16.6717 7.97679Z" fill="white"/>
</svg>
