<svg width="56" height="52" viewBox="0 0 56 52" fill="none" xmlns="http://www.w3.org/2000/svg">
<path d="M5.4089 13.2918L26.3285 16.1917C27.0588 18.1906 30.7382 28.0306 31.4284 29.7929H31.4181C25.3578 33.026 19.2982 36.2472 13.2347 39.4786C15.3397 39.0624 17.4715 38.8547 19.615 38.8547C22.418 38.8547 25.166 39.2218 27.7898 39.933C33.0822 41.3851 37.8629 43.7001 42.4856 45.9533C46.6044 47.9522 50.504 49.8476 54.3949 50.9352C54.9435 51.0912 55.4717 51.2225 55.9999 51.337C51.3883 41.1545 38.9877 13.7182 36.5376 7.67839C35.3869 4.83099 33.8014 3.77392 31.5526 3.46113L6.98255 0.0542597C3.59236 -0.411122 0.489082 2.1684 0.0481142 5.82364C-0.373203 9.47973 2.01871 12.8256 5.4089 13.2918Z" fill="white"/>
</svg>
