<svg width="94" height="16" viewBox="0 0 94 16" fill="none" xmlns="http://www.w3.org/2000/svg">
<path fill-rule="evenodd" clip-rule="evenodd" d="M85.7061 13.2669L90.8322 16L89.8532 10.2111L94.0002 6.11146L88.2692 5.26687L85.7061 0V13.2669Z" fill="#EDEDED"/>
<path fill-rule="evenodd" clip-rule="evenodd" d="M85.706 13.0091L80.8309 15.6085L81.7619 10.103L77.8179 6.20394L83.2685 5.4007L85.706 0.391602V13.0091Z" fill="#33B0AA"/>
<path fill-rule="evenodd" clip-rule="evenodd" d="M66.3527 13.0091L61.4775 15.6085L62.4086 10.103L58.4645 6.20394L63.9151 5.4007L66.3527 0.391602L68.7903 5.4007L74.2408 6.20394L70.2968 10.103L71.2278 15.6085L66.3527 13.0091Z" fill="#33B0AA"/>
<path fill-rule="evenodd" clip-rule="evenodd" d="M46.9997 13.0091L42.1245 15.6085L43.0556 10.103L39.1115 6.20394L44.5621 5.4007L46.9997 0.391602L49.4372 5.4007L54.8878 6.20394L50.9437 10.103L51.8748 15.6085L46.9997 13.0091Z" fill="#33B0AA"/>
<path fill-rule="evenodd" clip-rule="evenodd" d="M27.6471 13.0091L22.772 15.6085L23.703 10.103L19.759 6.20394L25.2095 5.4007L27.6471 0.391602L30.0847 5.4007L35.5353 6.20394L31.5912 10.103L32.5223 15.6085L27.6471 13.0091Z" fill="#33B0AA"/>
<path fill-rule="evenodd" clip-rule="evenodd" d="M8.2941 13.0091L3.41895 15.6085L4.35002 10.103L0.405942 6.20394L5.85652 5.4007L8.2941 0.391602L10.7317 5.4007L16.1822 6.20394L12.2382 10.103L13.1692 15.6085L8.2941 13.0091Z" fill="#33B0AA"/>
</svg>
